<?xml version="1.0" encoding="UTF-8" standalone="no"?>
<!-- Created with Inkscape (http://www.inkscape.org/) -->

<svg
   xmlns:dc="http://purl.org/dc/elements/1.1/"
   xmlns:cc="http://creativecommons.org/ns#"
   xmlns:rdf="http://www.w3.org/1999/02/22-rdf-syntax-ns#"
   xmlns:svg="http://www.w3.org/2000/svg"
   xmlns="http://www.w3.org/2000/svg"
   xmlns:sodipodi="http://sodipodi.sourceforge.net/DTD/sodipodi-0.dtd"
   xmlns:inkscape="http://www.inkscape.org/namespaces/inkscape"
   width="48"
   height="48"
   id="svg2"
   version="1.1"
   inkscape:version="0.48.4 r9939"
   sodipodi:docname="rime-sync.svg"
   inkscape:export-filename="/home/marguerite/fcitx-sync.png"
   inkscape:export-xdpi="90"
   inkscape:export-ydpi="90">
  <defs
     id="defs4" />
  <sodipodi:namedview
     id="base"
     pagecolor="#ffffff"
     bordercolor="#666666"
     borderopacity="1.0"
     inkscape:pageopacity="0.0"
     inkscape:pageshadow="2"
     inkscape:zoom="5.6"
     inkscape:cx="95.901666"
     inkscape:cy="44.858851"
     inkscape:document-units="px"
     inkscape:current-layer="layer1"
     showgrid="false"
     inkscape:window-width="1600"
     inkscape:window-height="1180"
     inkscape:window-x="1365"
     inkscape:window-y="-3"
     inkscape:window-maximized="1"
     fit-margin-top="2"
     fit-margin-left="2"
     fit-margin-right="2"
     fit-margin-bottom="2" />
  <metadata
     id="metadata7">
    <rdf:RDF>
      <cc:Work
         rdf:about="">
        <dc:format>image/svg+xml</dc:format>
        <dc:type
           rdf:resource="http://purl.org/dc/dcmitype/StillImage" />
        <dc:title />
      </cc:Work>
    </rdf:RDF>
  </metadata>
  <g
     inkscape:label="Layer 1"
     inkscape:groupmode="layer"
     id="layer1"
     transform="translate(-133.21875,-604.15625)">
    <g
       id="g2986"
       transform="matrix(0.08716634,0,0,0.08716634,122.91257,587.64212)">
      <path
         inkscape:connector-curvature="0"
         id="path2987"
         d="m 343.64489,291.93346 c -67.62952,0 -122.43642,54.8069 -122.43642,122.43643 0,5.71185 0.39707,11.35124 1.1539,16.85509 -43.20189,13.20175 -74.63224,53.40118 -74.63224,100.92454 0,58.26544 47.23347,105.49891 105.49891,105.49891 l 284.10525,0 0,-0.0824 c 56.69601,-1.79036 102.07843,-48.28571 102.07843,-105.41648 0,-51.53927 -36.94078,-94.42481 -85.80028,-103.64443 1.90058,-6.25109 2.92595,-12.90875 2.92595,-19.78104 0,-37.45636 -30.37615,-67.79129 -67.8325,-67.79129 -14.50364,0 -27.9181,4.56771 -38.94393,12.32194 -21.15935,-36.65391 -60.75262,-61.32124 -106.11707,-61.32124 z"
         style="fill:#e6e6e6;fill-opacity:1;stroke:#000000;stroke-width:25;stroke-miterlimit:4;stroke-opacity:1;stroke-dasharray:none" />
      <path
         inkscape:connector-curvature="0"
         id="path3884"
         d="m 459.22925,409.31291 -61.69191,71.97389 28.64267,-0.0734 0.25705,90.81196 66.50241,-0.14689 -0.25705,-90.81196 28.64266,-0.0734 -62.09584,-71.68012 z m -164.76881,0.0367 0,90.81196 -28.64268,0 61.91224,71.82701 61.87552,-71.82701 -28.64267,0 0,-90.81196 -66.50241,0 z"
         style="fill:#000000;fill-opacity:1;stroke:none" />
    </g>
  </g>
</svg>
