<?xml version="1.0" encoding="UTF-8" standalone="no"?>
<!-- Created with Inkscape (http://www.inkscape.org/) -->

<svg
   xmlns:dc="http://purl.org/dc/elements/1.1/"
   xmlns:cc="http://creativecommons.org/ns#"
   xmlns:rdf="http://www.w3.org/1999/02/22-rdf-syntax-ns#"
   xmlns:svg="http://www.w3.org/2000/svg"
   xmlns="http://www.w3.org/2000/svg"
   xmlns:sodipodi="http://sodipodi.sourceforge.net/DTD/sodipodi-0.dtd"
   xmlns:inkscape="http://www.inkscape.org/namespaces/inkscape"
   width="48"
   height="48"
   id="svg2"
   version="1.1"
   inkscape:version="0.48.4 r9939"
   sodipodi:docname="rime-im.svg"
   inkscape:export-filename="/home/marguerite/Public/fcitx-artwork/rime/rime-im.png"
   inkscape:export-xdpi="82.5"
   inkscape:export-ydpi="82.5">
  <defs
     id="defs4" />
  <sodipodi:namedview
     id="base"
     pagecolor="#ffffff"
     bordercolor="#666666"
     borderopacity="1.0"
     inkscape:pageopacity="0.0"
     inkscape:pageshadow="2"
     inkscape:zoom="8"
     inkscape:cx="-44.232782"
     inkscape:cy="-4.0338508"
     inkscape:document-units="px"
     inkscape:current-layer="rime-im"
     showgrid="false"
     inkscape:window-width="1600"
     inkscape:window-height="1180"
     inkscape:window-x="1365"
     inkscape:window-y="-3"
     inkscape:window-maximized="1"
     showguides="true"
     inkscape:guide-bbox="true" />
  <metadata
     id="metadata7">
    <rdf:RDF>
      <cc:Work
         rdf:about="">
        <dc:format>image/svg+xml</dc:format>
        <dc:type
           rdf:resource="http://purl.org/dc/dcmitype/StillImage" />
        <dc:title />
      </cc:Work>
    </rdf:RDF>
  </metadata>
  <g
     inkscape:label="Layer 1"
     inkscape:groupmode="layer"
     id="layer1"
     transform="translate(0,-1004.3622)">
    <g
       id="rime-im"
       inkscape:export-xdpi="82.5"
       inkscape:export-ydpi="82.5">
      <rect
         y="1028.3622"
         x="0"
         height="24"
         width="24"
         id="rect3759"
         style="fill:none;stroke:none" />
      <g
         id="g2986"
         transform="matrix(2.0264386,0,0,2.0264386,-0.3172632,-1079.5196)">
        <path
           sodipodi:nodetypes="sccccsscccccsssccssssccss"
           inkscape:connector-curvature="0"
           style="fill:#000000;fill-opacity:1;stroke:none"
           d="M 12,1.78125 C 9.2743936,1.78125 6.80641,2.8582248 5,4.625 4.97905,4.645402 4.958507,4.666997 4.9375,4.6875 4.895957,4.728855 4.85332,4.770426 4.8125,4.8125 4.6287613,4.9941226 4.4456347,5.1784685 4.28125,5.375 2.9442189,6.980279 2.1291065,9.030521 2,11.25 c -0.011442,0.196696 -0.03125,0.39422 -0.03125,0.59375 0,0.199761 0.019748,0.396874 0.03125,0.59375 0.1345177,2.311587 1.0333329,4.402666 2.46875,6.03125 0.028982,0.03288 0.06394,0.06129 0.09375,0.09375 0.1125029,0.124343 0.2252077,0.256458 0.34375,0.375 0.1009149,0.09787 0.2104276,0.18726 0.3125,0.28125 1.6502552,1.519347 3.7984229,2.485973 6.1875,2.625 0.196619,0.01144 0.39422,0.03125 0.59375,0.03125 0.19953,0 0.397131,-0.01981 0.59375,-0.03125 2.404575,-0.139929 4.564489,-1.11991 6.21875,-2.65625 0.09096,-0.08449 0.19054,-0.162943 0.28125,-0.25 0.159693,-0.159693 0.320092,-0.329855 0.46875,-0.5 1.418841,-1.623924 2.303884,-3.703911 2.4375,-6 0.01144,-0.196619 0.03125,-0.39422 0.03125,-0.59375 C 22.03125,11.64422 22.011442,11.446696 22,11.25 21.870894,9.030521 21.055781,6.980279 19.71875,5.375 19.526202,5.1447978 19.309302,4.9295775 19.09375,4.71875 19.062257,4.6871216 19.031908,4.6562083 19,4.625 17.19359,2.8582248 14.725606,1.78125 12,1.78125 z"
           transform="translate(0,1028.3622)"
           id="path2990" />
        <path
           inkscape:connector-curvature="0"
           id="path3753"
           transform="translate(0,1028.3622)"
           d="m 11.25,2.90625 c -0.09723,4.12e-4 -0.374989,0.02844 -0.59375,0.0625 -1.7634584,0.2745612 -3.3548928,1.0365355 -4.71875,2.25 L 5.71875,5.40625 5.9375,5.59375 C 6.3097599,5.921819 6.5911898,6.1542213 6.96875,6.40625 7.1745431,6.5436208 7.3596391,6.6428295 7.375,6.625 7.3903609,6.6071706 7.5355563,6.4119913 7.6875,6.1875 8.0469657,5.6564026 8.683542,4.8979685 9.125,4.5 9.6388673,4.0367554 10.392624,3.4693535 10.9375,3.15625 11.40684,2.8865547 11.423548,2.905514 11.25,2.90625 z m 1.5625,0 C 12.679458,2.892812 12.624865,2.919335 12.625,2.9375 c 1.32e-4,0.017765 0.199062,0.1401173 0.4375,0.28125 1.283657,0.759801 2.575955,2.001444 3.34375,3.21875 0.07279,0.1154134 0.16184,0.2187065 0.1875,0.21875 C 16.723508,6.6564697 18.25,5.50377 18.25,5.40625 18.25,5.3909629 18.101571,5.2694762 17.9375,5.125 16.682494,4.0198767 15.124509,3.2650086 13.46875,3 13.161335,2.9507975 12.945542,2.9196884 12.8125,2.90625 z M 11.40625,4.1875 11.28125,4.25 c -0.222484,0.1152898 -0.840578,0.5814029 -1.25,0.9375 C 9.584336,5.5762056 8.9197571,6.2957093 8.5625,6.8125 L 8.34375,7.125 8.5625,7.21875 c 0.625545,0.2712542 1.608096,0.5564713 2.375,0.65625 0.243068,0.031624 0.4314,0.05939 0.4375,0.0625 0.0061,0.00311 0.03125,-0.841337 0.03125,-1.875 l 0,-1.875 z M 12.625,4.25 l 0,1.84375 0,1.8125 L 12.96875,7.875 C 13.810379,7.799171 15.6437,7.2716449 15.59375,7.125 15.539081,6.9645154 14.915701,6.21515 14.5,5.78125 14.021595,5.2818991 13.185843,4.5535804 12.8125,4.34375 L 12.625,4.25 z M 5.03125,6.25 4.9375,6.34375 C 4.6775171,6.6771385 4.3054324,7.2855337 4.09375,7.6875 3.5160627,8.7844775 3.2565805,9.6194882 3.0625,11.09375 L 3.03125,11.25 4.5,11.25 5.9375,11.25 6,10.71875 C 6.093274,9.7873537 6.3753252,8.7112762 6.71875,7.90625 L 6.84375,7.625 6.40625,7.3125 C 6.1675475,7.1524335 5.7598465,6.8415647 5.5,6.625 L 5.03125,6.25 z m 13.9375,0 -0.4375,0.375 C 18.048826,7.03769 17.728845,7.2547413 17.34375,7.5 l -0.25,0.15625 0.09375,0.1875 c 0.345599,0.7899742 0.623887,1.9221573 0.71875,2.875 l 0.0625,0.53125 1.5,0 1.46875,0 0,-0.25 C 20.806546,9.8450486 20.524242,8.8652081 20.03125,7.875 19.793985,7.3984351 19.304759,6.6709507 19.0625,6.375 L 18.96875,6.25 z M 7.84375,8.125 7.65625,8.5 c -0.297863,0.7235219 -0.4985428,1.530434 -0.59375,2.3125 -0.025075,0.20597 -0.03125,0.38738 -0.03125,0.40625 0,0.01886 0.9843136,0.03125 2.1875,0.03125 l 2.1875,0 0,-1.125 0,-1.125 -0.1875,-0.03125 C 11.127599,8.955466 10.939245,8.952921 10.78125,8.9375 10.025576,8.8637425 8.9688502,8.5864555 8.21875,8.28125 L 7.84375,8.125 z m 8.25,0.03125 c -0.02964,0 -0.198283,0.052128 -0.375,0.125 C 15.018261,8.5701085 13.899017,8.871054 13.1875,8.9375 13.017352,8.95339 12.81684,8.956145 12.75,8.96875 L 12.625,9 l 0,1.125 0,1.125 2.125,0 2.125,0 0,-0.28125 C 16.821936,10.463209 16.639987,9.6302967 16.53125,9.25 16.374219,8.7008019 16.1557,8.15625 16.09375,8.15625 z M 3.0625,12.4375 l 0,0.21875 c 0.1154212,0.957029 0.2870968,1.65787 0.5625,2.375 0.3175848,0.826967 0.8360862,1.72583 1.375,2.40625 0.1010717,0.12761 0.17518,0.21875 0.1875,0.21875 0.01232,0 0.1613144,-0.09082 0.3125,-0.21875 0.331,-0.280087 0.9299392,-0.739171 1.21875,-0.90625 0.1154462,-0.06679 0.238623,-0.13784 0.25,-0.15625 C 6.980127,16.35659 6.886667,16.146837 6.78125,15.90625 6.3709882,14.969935 6.1067741,13.943027 6,12.9375 l -0.0625,-0.5 -1.4375,0 -1.4375,0 z m 4.28125,0 c -0.2900099,0.01026 -0.3128801,0.05744 -0.3125,0.09375 0.00216,0.20628 0.1205126,1.01975 0.21875,1.40625 0.1417067,0.557523 0.2404387,0.844771 0.5,1.4375 0.1160565,0.265024 0.21686,0.468463 0.21875,0.46875 0.00189,2.87e-4 0.1925107,-0.07234 0.40625,-0.15625 0.727135,-0.285461 1.727524,-0.54748 2.4375,-0.625 0.133687,-0.0146 0.3151,-0.01797 0.40625,-0.03125 L 11.40625,15 l 0,-1.28125 0,-1.28125 -2.1875,0 c -1.0271426,0 -1.5849901,-0.01026 -1.875,0 z m 5.28125,0 0,1.28125 0,1.28125 0.15625,0.03125 c 0.079,0.01223 0.260409,0.01695 0.40625,0.03125 0.667476,0.06545 1.745274,0.332276 2.40625,0.59375 0.182301,0.07212 0.35575,0.15485 0.375,0.15625 0.09773,0.0072 0.542604,-1.241311 0.6875,-1.90625 0.0822,-0.377238 0.21615,-1.237734 0.21875,-1.40625 6.78e-4,-0.04344 -0.456946,-0.0625 -2.125,-0.0625 l -2.125,0 z m 5.3125,0 0,0.1875 c -0.0011,0.256649 -0.108757,0.996027 -0.21875,1.5 -0.09834,0.450593 -0.439352,1.502541 -0.625,1.90625 l -0.125,0.25 0.3125,0.1875 c 0.356852,0.212002 0.885946,0.59707 1.28125,0.9375 l 0.28125,0.25 0.1875,-0.25 c 1.032162,-1.275324 1.702436,-2.921209 1.90625,-4.71875 l 0,-0.25 -1.5,0 -1.5,0 z M 11.375,16.125 c -0.02694,-0.02694 -0.948476,0.10158 -1.3125,0.1875 -0.6120354,0.144452 -1.5,0.46279 -1.5,0.53125 0,0.0164 0.1393146,0.210094 0.3125,0.4375 0.5706853,0.749355 1.366967,1.514162 2.15625,2.03125 l 0.34375,0.21875 0,-1.6875 c 0.0064,-0.929355 0.0073,-1.71145 0,-1.71875 z m 1.25,0 0,1.65625 0,1.65625 0.1875,-0.09375 c 0.516887,-0.314058 1.35235,-1.049136 1.78125,-1.53125 0.415034,-0.466528 0.81839,-1.02591 0.78125,-1.0625 -0.06762,-0.0666 -0.754895,-0.266288 -1.21875,-0.375 -0.422602,-0.09904 -0.641835,-0.15837 -1.375,-0.25 l -0.15625,0 z m 3.78125,1.15625 c -0.03868,-0.0099 -0.04387,-0.0021 -0.0625,0.03125 -0.136549,0.243999 -0.799221,1.066671 -1.1875,1.46875 -0.691875,0.716465 -1.464679,1.317728 -2.1875,1.71875 -0.187987,0.104295 -0.343359,0.21852 -0.34375,0.25 -4.92e-4,0.03979 0.05654,0.04663 0.15625,0.03125 0.079,-0.01218 0.253466,-0.04821 0.375,-0.0625 1.640313,-0.192838 3.447891,-0.996104 4.65625,-2.0625 l 0.21875,-0.1875 -0.125,-0.125 c -0.385656,-0.336911 -0.839853,-0.668189 -1.28125,-0.9375 -0.107273,-0.06545 -0.180068,-0.115122 -0.21875,-0.125 z m -8.875,0.0625 c -0.075561,0 -0.8735837,0.565334 -1.25,0.875 l -0.3125,0.25 L 6.25,18.6875 c 1.3359653,1.120453 2.9709756,1.847245 4.6875,2.0625 0.170148,0.02133 0.35803,0.02815 0.40625,0.03125 0.04823,0.0031 -0.125001,-0.105565 -0.375,-0.25 C 9.8564642,19.888634 8.8719078,19.025475 8.0625,18 7.9170176,17.815682 7.742587,17.58913 7.6875,17.5 7.6324122,17.41087 7.560992,17.34375 7.53125,17.34375 z"
           style="fill:#e6e6e6;fill-opacity:1;stroke:none" />
      </g>
    </g>
  </g>
</svg>
